<?xml version="1.0" encoding="utf-8"?>
<!-- Generator: Adobe Illustrator 16.0.0, SVG Export Plug-In . SVG Version: 6.00 Build 0)  -->
<!DOCTYPE svg PUBLIC "-//W3C//DTD SVG 1.1//EN" "http://www.w3.org/Graphics/SVG/1.1/DTD/svg11.dtd">
<svg version="1.1" id="Layer_1" xmlns="http://www.w3.org/2000/svg" xmlns:xlink="http://www.w3.org/1999/xlink" x="0px" y="0px"
	 width="400px" height="104.84px" viewBox="0 0 400 104.84" enable-background="new 0 0 400 104.84" xml:space="preserve">
<g>
	<path fill="#484C56" d="M131.182,53.525v41.529c0,5.639,4.594,10.232,10.232,10.232c5.849,0,10.443-4.594,10.443-10.232V40.293
		C147.288,46.954,139.883,51.833,131.182,53.525z"/>
	<path fill="#90E692" d="M135.883,41.302c5.412-1.724,10.462-5.578,13.292-10.646c0.34-0.678,0.677-1.355,0.991-2.041
		c1.007-2.412,1.552-7.29,1.675-9.92l0.017-7.675c0-5.849-4.595-10.44-10.443-10.44c-5.639,0-10.232,4.592-10.232,10.44v31.19
		C132.782,42.085,134.362,41.787,135.883,41.302z"/>
	<path fill="#484C56" d="M83.197,14.78L51.872,98.318c-1.671,4.178-5.64,6.891-9.816,6.891c-0.209,0-0.209,0-0.209,0
		c-4.386,0-8.354-2.922-9.815-6.891L0.705,14.78C-1.385,9.35,1.331,3.294,6.762,1.415C12.19-0.673,18.039,2.042,20.127,7.47
		l21.929,58.268L63.775,7.47c2.089-5.429,7.936-8.144,13.365-6.056C82.571,3.294,85.287,9.35,83.197,14.78z"/>
	<path fill="#484C56" d="M297.046,10.813c0,5.639-4.595,10.441-10.442,10.441c-17.542,0-31.743,14.202-31.743,31.746v41.977
		c0,5.641-4.596,10.441-10.235,10.441c-5.846,0-10.44-4.801-10.44-10.441V53c0-29.029,23.599-52.419,52.419-52.419
		C292.451,0.581,297.046,5.174,297.046,10.813z"/>
	<path fill="#484C56" d="M216.224,84.744c-17.544,0-31.744-14.201-31.744-31.744V42.01h14.827c5.849,0,10.443-4.805,10.443-10.441
		c0-5.639-4.595-10.234-10.443-10.234h-14.827V11.021c0-5.638-4.595-10.44-10.233-10.44c-5.848,0-10.442,4.803-10.442,10.44V53
		c0,29.029,23.601,52.42,52.42,52.42c5.848,0,10.442-4.596,10.442-10.232C226.666,89.549,222.071,84.744,216.224,84.744z"/>
	<path fill="none" d="M347.99,0.909c-0.184-0.006-0.366-0.018-0.55-0.018c-0.466,0-0.932,0.027-1.396,0.066
		C346.688,0.926,347.339,0.915,347.99,0.909z"/>
	<path fill="#484C56" d="M96.77,40.088v55.095c0,5.639,4.595,10.234,10.443,10.234c5.638,0,10.233-4.596,10.233-10.234V53.498
		C108.716,51.762,101.303,46.817,96.77,40.088z"/>
	<path fill="#90E692" d="M112.745,41.374c-5.414-1.723-10.463-5.579-13.294-10.645c-0.339-0.678-0.676-1.356-0.99-2.041
		c-1.006-2.414-1.553-5.029-1.675-7.658H96.77V11.021c0-5.849,4.595-10.44,10.443-10.44c5.638,0,10.233,4.592,10.233,10.44v31.263
		C115.845,42.156,114.266,41.858,112.745,41.374z"/>
	<path fill="#484C56" d="M348.624,84.639c-17.543,0-32.372-13.365-32.372-30.908c0-17.244,14.327-31.863,31.475-32.358
		c0.079-0.001,0.156-0.004,0.234-0.005c0.222-0.005,0.441-0.009,0.663-0.009c0.106,0,0.212,0.003,0.318,0.005
		c0.175,0.004,0.352,0.005,0.526,0.01c6.147,0.186,11.75,2.195,16.407,5.498c0.005-0.018,0.01-0.034,0.015-0.051
		c0.605-1.957,0.927-4.014,0.927-6.07c0-5.163-1.986-10.329-5.562-13.904c-3.278-3.279-7.899-5.547-12.629-5.898l-0.002-0.057
		c-0.547,0-1.093,0.012-1.635,0.027c-0.347,0.008-0.692,0.019-1.034,0.035c-0.021,0.002-0.041,0.005-0.062,0.006
		c-28.149,1.395-50.108,24.24-50.108,52.771c0,29.447,23.392,51.375,52.839,51.375c11.903,0,21.929-2.924,30.908-10.443V53.73
		C379.532,71.273,366.167,84.639,348.624,84.639z"/>
	<path fill="#90E692" d="M370.912,5.842c3.058,4.502,4.824,9.809,4.824,15.492c0,4.358-1.04,8.495-2.902,12.217
		c3.957,5.23,6.383,11.752,6.67,18.77c0.02,0.468,0.028,0.937,0.028,1.41v40.932c0,6.059,5.849,10.443,10.025,10.443
		c6.058,0,10.442-4.385,10.442-10.443V53.73C400,32.381,388.473,14.219,370.912,5.842z"/>
</g>
</svg>
